<mxfile host="app.diagrams.net" modified="2023-10-03T11:19:59.900Z" agent="Mozilla/5.0 (Windows NT 10.0; Win64; x64) AppleWebKit/537.36 (KHTML, like Gecko) Chrome/117.0.0.0 Safari/537.36" etag="qo1mfB4_FfcgsT6cO-zh" version="21.7.4" type="device">
  <diagram id="C5RBs43oDa-KdzZeNtuy" name="Page-1">
    <mxGraphModel dx="1050" dy="1743" grid="1" gridSize="10" guides="1" tooltips="1" connect="1" arrows="1" fold="1" page="1" pageScale="1" pageWidth="827" pageHeight="1169" math="0" shadow="0">
      <root>
        <mxCell id="WIyWlLk6GJQsqaUBKTNV-0" />
        <mxCell id="WIyWlLk6GJQsqaUBKTNV-1" parent="WIyWlLk6GJQsqaUBKTNV-0" />
        <mxCell id="1WdAa6VUj1am_DI-IyO3-3" value="No" style="edgeStyle=orthogonalEdgeStyle;rounded=0;orthogonalLoop=1;jettySize=auto;html=1;entryX=0;entryY=0.5;entryDx=0;entryDy=0;" edge="1" parent="WIyWlLk6GJQsqaUBKTNV-1" source="WIyWlLk6GJQsqaUBKTNV-6" target="1WdAa6VUj1am_DI-IyO3-2">
          <mxGeometry relative="1" as="geometry" />
        </mxCell>
        <mxCell id="1WdAa6VUj1am_DI-IyO3-6" value="Yes" style="edgeStyle=orthogonalEdgeStyle;rounded=0;orthogonalLoop=1;jettySize=auto;html=1;exitX=0.5;exitY=1;exitDx=0;exitDy=0;entryX=0.5;entryY=0;entryDx=0;entryDy=0;" edge="1" parent="WIyWlLk6GJQsqaUBKTNV-1" source="WIyWlLk6GJQsqaUBKTNV-6" target="WIyWlLk6GJQsqaUBKTNV-11">
          <mxGeometry relative="1" as="geometry" />
        </mxCell>
        <mxCell id="WIyWlLk6GJQsqaUBKTNV-6" value="Does b^2-4ac=0?" style="rhombus;whiteSpace=wrap;html=1;shadow=0;fontFamily=Helvetica;fontSize=12;align=center;strokeWidth=1;spacing=6;spacingTop=-4;" parent="WIyWlLk6GJQsqaUBKTNV-1" vertex="1">
          <mxGeometry x="150" y="145" width="140" height="130" as="geometry" />
        </mxCell>
        <mxCell id="WIyWlLk6GJQsqaUBKTNV-11" value="Repeated root,&lt;br&gt;x=(-b/2a)" style="rounded=1;whiteSpace=wrap;html=1;fontSize=12;glass=0;strokeWidth=1;shadow=0;" parent="WIyWlLk6GJQsqaUBKTNV-1" vertex="1">
          <mxGeometry x="160" y="355" width="120" height="40" as="geometry" />
        </mxCell>
        <mxCell id="1WdAa6VUj1am_DI-IyO3-5" value="Yes" style="edgeStyle=orthogonalEdgeStyle;rounded=0;orthogonalLoop=1;jettySize=auto;html=1;entryX=0.5;entryY=0;entryDx=0;entryDy=0;" edge="1" parent="WIyWlLk6GJQsqaUBKTNV-1" source="1WdAa6VUj1am_DI-IyO3-2" target="1WdAa6VUj1am_DI-IyO3-4">
          <mxGeometry relative="1" as="geometry" />
        </mxCell>
        <mxCell id="1WdAa6VUj1am_DI-IyO3-9" value="No" style="edgeStyle=orthogonalEdgeStyle;rounded=0;orthogonalLoop=1;jettySize=auto;html=1;exitX=1;exitY=0.5;exitDx=0;exitDy=0;entryX=0;entryY=0.5;entryDx=0;entryDy=0;" edge="1" parent="WIyWlLk6GJQsqaUBKTNV-1" source="1WdAa6VUj1am_DI-IyO3-2" target="1WdAa6VUj1am_DI-IyO3-8">
          <mxGeometry relative="1" as="geometry" />
        </mxCell>
        <mxCell id="1WdAa6VUj1am_DI-IyO3-2" value="Is b^2-4ac&amp;gt;0?" style="rhombus;whiteSpace=wrap;html=1;" vertex="1" parent="WIyWlLk6GJQsqaUBKTNV-1">
          <mxGeometry x="344" y="140" width="140" height="140" as="geometry" />
        </mxCell>
        <mxCell id="1WdAa6VUj1am_DI-IyO3-4" value="Two real roots, x1=(-b+sqrt(b^2-4ac))/2a&lt;br&gt;x2=(-b-sqrt(b^2-4ac))/2a" style="rounded=1;whiteSpace=wrap;html=1;" vertex="1" parent="WIyWlLk6GJQsqaUBKTNV-1">
          <mxGeometry x="333.5" y="335" width="161" height="80" as="geometry" />
        </mxCell>
        <mxCell id="1WdAa6VUj1am_DI-IyO3-11" value="Yes" style="edgeStyle=orthogonalEdgeStyle;rounded=0;orthogonalLoop=1;jettySize=auto;html=1;entryX=0.5;entryY=0;entryDx=0;entryDy=0;" edge="1" parent="WIyWlLk6GJQsqaUBKTNV-1" source="1WdAa6VUj1am_DI-IyO3-8" target="1WdAa6VUj1am_DI-IyO3-10">
          <mxGeometry relative="1" as="geometry" />
        </mxCell>
        <mxCell id="1WdAa6VUj1am_DI-IyO3-17" value="No" style="edgeStyle=orthogonalEdgeStyle;rounded=0;orthogonalLoop=1;jettySize=auto;html=1;entryX=0.5;entryY=1;entryDx=0;entryDy=0;" edge="1" parent="WIyWlLk6GJQsqaUBKTNV-1" source="1WdAa6VUj1am_DI-IyO3-8" target="1WdAa6VUj1am_DI-IyO3-14">
          <mxGeometry relative="1" as="geometry" />
        </mxCell>
        <mxCell id="1WdAa6VUj1am_DI-IyO3-8" value="&lt;span style=&quot;color: rgb(0, 0, 0); font-family: Helvetica; font-size: 12px; font-style: normal; font-variant-ligatures: normal; font-variant-caps: normal; font-weight: 400; letter-spacing: normal; orphans: 2; text-align: center; text-indent: 0px; text-transform: none; widows: 2; word-spacing: 0px; -webkit-text-stroke-width: 0px; background-color: rgb(251, 251, 251); text-decoration-thickness: initial; text-decoration-style: initial; text-decoration-color: initial; float: none; display: inline !important;&quot;&gt;Is b^2-4ac&amp;lt;0?&lt;/span&gt;" style="rhombus;whiteSpace=wrap;html=1;" vertex="1" parent="WIyWlLk6GJQsqaUBKTNV-1">
          <mxGeometry x="552.5" y="145" width="130" height="130" as="geometry" />
        </mxCell>
        <mxCell id="1WdAa6VUj1am_DI-IyO3-10" value="Two imaginaryroots, &lt;br&gt;x1=(-b/2a)+(sqrt(b^2-4ac)/2a)i&lt;br&gt;x2=(-b/2a)-(sqrt(b^2-4ac)/2a)i" style="rounded=1;whiteSpace=wrap;html=1;" vertex="1" parent="WIyWlLk6GJQsqaUBKTNV-1">
          <mxGeometry x="523.75" y="335" width="187.5" height="80" as="geometry" />
        </mxCell>
        <mxCell id="1WdAa6VUj1am_DI-IyO3-13" value="Yes" style="edgeStyle=orthogonalEdgeStyle;rounded=0;orthogonalLoop=1;jettySize=auto;html=1;entryX=0.5;entryY=0;entryDx=0;entryDy=0;" edge="1" parent="WIyWlLk6GJQsqaUBKTNV-1" source="1WdAa6VUj1am_DI-IyO3-12" target="WIyWlLk6GJQsqaUBKTNV-6">
          <mxGeometry relative="1" as="geometry" />
        </mxCell>
        <mxCell id="1WdAa6VUj1am_DI-IyO3-15" value="No" style="edgeStyle=orthogonalEdgeStyle;rounded=0;orthogonalLoop=1;jettySize=auto;html=1;entryX=0;entryY=0.5;entryDx=0;entryDy=0;" edge="1" parent="WIyWlLk6GJQsqaUBKTNV-1" source="1WdAa6VUj1am_DI-IyO3-12" target="1WdAa6VUj1am_DI-IyO3-14">
          <mxGeometry relative="1" as="geometry">
            <Array as="points">
              <mxPoint x="558" y="20" />
            </Array>
          </mxGeometry>
        </mxCell>
        <mxCell id="1WdAa6VUj1am_DI-IyO3-12" value="Is your quadratic in&lt;br&gt;&amp;nbsp;the form ax^2+bx+c &lt;br&gt;where a, b, and c &lt;br&gt;are real numbers?" style="rhombus;whiteSpace=wrap;html=1;" vertex="1" parent="WIyWlLk6GJQsqaUBKTNV-1">
          <mxGeometry x="132.5" y="-70" width="167.5" height="180" as="geometry" />
        </mxCell>
        <mxCell id="1WdAa6VUj1am_DI-IyO3-16" style="edgeStyle=orthogonalEdgeStyle;rounded=0;orthogonalLoop=1;jettySize=auto;html=1;entryX=0.5;entryY=0;entryDx=0;entryDy=0;" edge="1" parent="WIyWlLk6GJQsqaUBKTNV-1" source="1WdAa6VUj1am_DI-IyO3-14" target="1WdAa6VUj1am_DI-IyO3-12">
          <mxGeometry relative="1" as="geometry">
            <Array as="points">
              <mxPoint x="618" y="-110" />
              <mxPoint x="216" y="-110" />
            </Array>
          </mxGeometry>
        </mxCell>
        <mxCell id="1WdAa6VUj1am_DI-IyO3-14" value="Turn your quadratic into the form ax^2+bx+c" style="rounded=1;whiteSpace=wrap;html=1;" vertex="1" parent="WIyWlLk6GJQsqaUBKTNV-1">
          <mxGeometry x="557.5" y="-10" width="120" height="60" as="geometry" />
        </mxCell>
      </root>
    </mxGraphModel>
  </diagram>
</mxfile>
